<?xml version="1.0" encoding="UTF-8"?>
<svg width="24px" height="24px" viewBox="0 0 24 24" version="1.1" xmlns="http://www.w3.org/2000/svg" xmlns:xlink="http://www.w3.org/1999/xlink">
    <!-- Generator: sketchtool 52.5 (67469) - http://www.bohemiancoding.com/sketch -->
    <title>F1907E64-0A81-4101-860F-9FCDB34E26D3</title>
    <desc>Created with sketchtool.</desc>
    <g id="Symbols" stroke="none" stroke-width="1" fill="none" fill-rule="evenodd">
        <g id="Artboard-Copy-26" fill="#FFFFFF" fill-rule="nonzero">
            <path d="M5,23 L3,23 L3,1 L5,1 L5,3.5 L7.5,3.5 L7.5,1 L16.5,1 L16.5,3.5 L19,3.5 L19,1 L21,1 L21,23 L19,23 L19,20.5 L16.5,20.5 L16.5,23 L7.5,23 L7.5,20.5 L5,20.5 L5,23 Z M16.5,14.2 L16.5,16.7 L19,16.7 L19,14.2 L16.5,14.2 Z M16.5,7.6 L16.5,10.1 L19,10.1 L19,7.6 L16.5,7.6 Z M5,7.6 L5,10.1 L7.5,10.1 L7.5,7.6 L5,7.6 Z M5,14.2 L5,16.7 L7.5,16.7 L7.5,14.2 L5,14.2 Z" id="Combined-Shape"></path>
        </g>
    </g>
</svg>