<?xml version="1.0" encoding="UTF-8"?>
<svg width="24px" height="24px" viewBox="0 0 24 24" version="1.1" xmlns="http://www.w3.org/2000/svg" xmlns:xlink="http://www.w3.org/1999/xlink">
    <!-- Generator: sketchtool 52.5 (67469) - http://www.bohemiancoding.com/sketch -->
    <title>38B016C0-4711-4261-8A9D-D0533EB0E47D</title>
    <desc>Created with sketchtool.</desc>
    <g id="Symbols" stroke="none" stroke-width="1" fill="none" fill-rule="evenodd">
        <g id="Artboard-Copy-23" fill="#FFFFFF" fill-rule="nonzero">
            <path d="M0.998233603,13.0360986 L4.30282845,13.0360986 C4.56282315,16.4075515 6.29746569,19.7295247 9.46064786,23 C4.89415656,21.9039926 1.42076672,17.9169798 0.998233603,13.0360986 Z M0.998233603,11.0279119 C1.42946732,6.04652595 5.03849488,1.99619958 9.74411416,1 C6.47330978,4.29102036 4.65036174,7.63434506 4.32238475,11.0279119 L0.998233603,11.0279119 Z M10.9959067,11.0279119 L6.34297769,11.0279119 C6.66984522,8.27169485 8.2069934,5.46928532 10.9959067,2.61886766 L10.9959067,11.0279119 Z M10.9959067,13.0360986 L10.9959067,21.67023 C8.13103967,18.7421835 6.58704775,15.8647958 6.31896553,13.0360986 L10.9959067,13.0360986 Z M23.0017664,11.0279119 L19.8081665,11.0279119 C19.4993509,7.65248172 17.7117412,4.326729 14.4916755,1.05268202 C19.0816506,2.13230066 22.577764,6.13005846 23.0017664,11.0279119 Z M23.0017664,13.0360986 C22.5819613,17.8854674 19.1505667,21.8524728 14.6276626,22.9784106 C17.7954498,19.7149358 19.540638,16.4001632 19.8173969,13.0360986 L23.0017664,13.0360986 Z M13.0040933,13.0360986 L17.8001806,13.0360986 C17.5121008,15.8865358 15.9287316,18.786405 13.0040933,21.7377185 L13.0040933,13.0360986 Z M13.0040933,11.0279119 L13.0040933,2.43254901 C15.8923984,5.347198 17.472553,8.21167285 17.7888415,11.0279119 L13.0040933,11.0279119 Z" id="Combined-Shape"></path>
        </g>
    </g>
</svg>