<?xml version="1.0" encoding="UTF-8"?>
<svg width="128px" height="128px" viewBox="0 0 128 128" version="1.1" xmlns="http://www.w3.org/2000/svg" xmlns:xlink="http://www.w3.org/1999/xlink">
    <!-- Generator: sketchtool 52.5 (67469) - http://www.bohemiancoding.com/sketch -->
    <title>09CE3E3C-D780-4F5C-9AE6-AB6F9D306E13</title>
    <desc>Created with sketchtool.</desc>
    <g id="Symbols" stroke="none" stroke-width="1" fill="none" fill-rule="evenodd">
        <g id="Artboard-Copy-46" fill="#052546" fill-rule="nonzero">
            <g id="Group" transform="translate(32.000000, 32.000000)">
                <path d="M16.7619048,6.0952381 C10.8708674,6.0952381 6.0952381,10.8708674 6.0952381,16.7619048 L6.0952381,35.047619 C6.0952381,40.9386564 10.8708674,45.7142857 16.7619048,45.7142857 L35.047619,45.7142857 C40.9386564,45.7142857 45.7142857,40.9386564 45.7142857,35.047619 L45.7142857,16.7619048 C45.7142857,10.8708674 40.9386564,6.0952381 35.047619,6.0952381 L16.7619048,6.0952381 Z M16.7619048,0 L35.047619,0 C44.3049634,0 51.8095238,7.50456038 51.8095238,16.7619048 L51.8095238,35.047619 C51.8095238,44.3049634 44.3049634,51.8095238 35.047619,51.8095238 L16.7619048,51.8095238 C7.50456038,51.8095238 0,44.3049634 0,35.047619 L0,16.7619048 C0,7.50456038 7.50456038,0 16.7619048,0 Z" id="Rectangle"></path>
                <polygon id="Line-3" points="40.5239569 44.8339411 44.8339411 40.5239569 60.9963818 56.6863976 56.6863976 60.9963818"></polygon>
                <polygon id="Line-4" points="13.7142857 28.952381 13.7142857 22.8571429 38.0952381 22.8571429 38.0952381 28.952381"></polygon>
                <polygon id="Path" points="22.8571429 13.7142857 28.952381 13.7142857 28.952381 38.0952381 22.8571429 38.0952381"></polygon>
            </g>
        </g>
    </g>
</svg>